<svg width="24" height="24" xmlns="http://www.w3.org/2000/svg" xmlns:svg="http://www.w3.org/2000/svg">
 <g>
  <path fill="#66fcf1" id="svg_1" d="m0.184,10.462c-0.779,4.906 1.401,10.823 8.123,13.006c0.12,0.022 0.231,0.032 0.335,0.032c0.782,0 1.32,-0.582 1.32,-1.3c-0.097,-0.523 0.383,-2.642 -0.92,-2.357c-2.519,0.536 -2.821,-0.871 -3.205,-1.607c1.086,1.394 2.718,1.359 3.949,0.819c0.683,-0.3 0.326,-1.064 0.65,-1.343c0.496,-0.426 0.244,-1.243 -0.407,-1.314c-2.314,-0.255 -4.457,-1.001 -4.457,-4.702c0,-2.168 1.505,-2.362 1.09,-3.269c-0.015,-0.033 -0.333,-0.754 -0.045,-1.849c1.419,0.262 2.072,1.28 2.753,1.097c1.687,-0.46 3.544,-0.46 5.23,0c0.704,0.189 1.207,-0.801 2.738,-1.103c0.441,1.654 -0.473,2.058 0.103,2.677c0.632,0.68 0.953,1.503 0.953,2.447c0,5.564 -4.717,3.957 -5.101,5.22c-0.088,0.288 0.005,0.599 0.235,0.792c0.61,0.513 0.53,1.83 0.465,2.889c-0.067,1.098 -0.125,2.045 0.482,2.579c0.214,0.19 0.595,0.393 1.284,0.253c6.634,-2.131 8.83,-8.022 8.063,-12.917c-2.096,-13.368 -21.526,-13.352 -23.638,-0.05zm8.27,10.978l0.004,0.505c-0.523,-0.181 -1.015,-0.39 -1.475,-0.623c0.425,0.109 0.913,0.156 1.471,0.118zm0.37,-3.7c-0.005,0.026 -0.01,0.053 -0.015,0.08c-0.853,0.252 -1.509,0.001 -1.957,-0.752c0,-0.001 0,-0.001 -0.001,-0.002c0.68,0.364 1.381,0.56 1.973,0.674zm3.176,-15.74c11.833,0 14.502,16.267 3.469,19.941c-0.038,-0.297 -0.003,-0.857 0.021,-1.252c0.058,-0.951 0.126,-2.059 -0.213,-2.985c5.088,-1.059 5.513,-6.646 3.554,-9.135c0.243,-0.952 0.145,-3.189 -0.729,-3.463c-0.206,-0.065 -1.305,-0.304 -3.437,1.037c-1.741,-0.416 -3.62,-0.417 -5.361,0c-1.064,-0.667 -3.462,-1.752 -3.922,-0.6c-0.534,1.342 -0.407,2.427 -0.248,3.03c-1.739,2.204 -1.218,5.894 0.534,7.626c-0.993,-0.475 -2.361,-0.637 -2.656,0.314c-0.323,1.037 0.912,0.911 1.679,2.804c0.073,0.236 0.208,0.513 0.415,0.788c-6.811,-5.565 -3.525,-18.105 6.894,-18.105z"/>
 </g>
</svg>