<svg id="Capa_1" fill="#202833" enable-background="new 0 0 533.876 533.876" height="512" viewBox="0 0 533.876 533.876" width="512" xmlns="http://www.w3.org/2000/svg"><g><path d="m457.757 533.876c-20.332 0-39.447-7.918-53.824-22.295l-62.018-62.018c-21.129-21.129-35.391-47.784-41.249-77.084l-11.809-59.085c-1.367-6.837.774-13.904 5.705-18.834 4.93-4.93 12.001-7.068 18.834-5.704l59.085 11.81c29.301 5.857 55.955 20.119 77.085 41.249l62.018 62.018c14.376 14.375 22.293 33.49 22.293 53.822s-7.917 39.447-22.296 53.824c-14.378 14.379-33.493 22.297-53.824 22.297zm-121.871-197.99 5.68 28.417c4.237 21.198 14.556 40.481 29.842 55.766l62.018 62.018c6.498 6.499 15.14 10.079 24.331 10.079s17.833-3.58 24.332-10.079c6.498-6.498 10.078-15.14 10.078-24.331s-3.58-17.833-10.078-24.331l-62.019-62.018c-15.285-15.285-34.568-25.604-55.765-29.842zm-11.094 174.253c8.199-8.089 8.287-21.293.197-29.492-8.089-8.198-21.295-8.289-29.491-.197-7.657 7.556-17.8 11.717-28.559 11.717-22.424 0-40.666-18.242-40.666-40.666v-243.998c0-45.422-36.953-82.375-82.375-82.375h-60.48c-22.998 0-41.709-18.711-41.709-41.709s18.711-41.71 41.709-41.71h367.04c22.998 0 41.709 18.711 41.709 41.709s-18.711 41.709-41.709 41.709h-60.478c-45.422 0-82.375 36.953-82.375 82.375v22.94c0 11.518 9.337 20.855 20.855 20.855s20.855-9.337 20.855-20.855v-22.94c0-22.424 18.242-40.666 40.666-40.666h60.478c45.997 0 83.418-37.421 83.418-83.418s-37.422-83.418-83.419-83.418h-367.04c-45.997 0-83.418 37.421-83.418 83.418s37.421 83.418 83.418 83.418h60.478c22.424 0 40.666 18.242 40.666 40.666v243.998c0 45.422 36.953 82.375 82.375 82.375 21.796.001 42.342-8.429 57.855-23.736z"/></g></svg>
